<mxfile host="app.diagrams.net" modified="2024-04-01T20:59:45.491Z" agent="Mozilla/5.0 (Windows NT 10.0; Win64; x64) AppleWebKit/537.36 (KHTML, like Gecko) Chrome/121.0.0.0 Safari/537.36 OPR/107.0.0.0" etag="BzTJB5ltcz451rnLEnCV" version="24.2.1" type="github">
  <diagram name="Página-1" id="Vh1qg6BBF9lEuc6MsgIA">
    <mxGraphModel dx="3267" dy="1135" grid="1" gridSize="10" guides="1" tooltips="1" connect="1" arrows="1" fold="1" page="1" pageScale="1" pageWidth="1169" pageHeight="1654" math="0" shadow="0">
      <root>
        <mxCell id="0" />
        <mxCell id="1" parent="0" />
        <mxCell id="VPOFz69Hzn8sEPwOuCHB-2" value="" style="html=1;points=[[0,0,0,0,5],[0,1,0,0,-5],[1,0,0,0,5],[1,1,0,0,-5]];perimeter=orthogonalPerimeter;outlineConnect=0;targetShapes=umlLifeline;portConstraint=eastwest;newEdgeStyle={&quot;curved&quot;:0,&quot;rounded&quot;:0};" parent="1" vertex="1">
          <mxGeometry x="-570" y="740" width="1170" height="1870" as="geometry" />
        </mxCell>
        <mxCell id="VPOFz69Hzn8sEPwOuCHB-14" style="edgeStyle=orthogonalEdgeStyle;rounded=0;orthogonalLoop=1;jettySize=auto;html=1;entryX=0;entryY=1;entryDx=0;entryDy=0;fillColor=#f8cecc;strokeColor=#b85450;" parent="1" source="VPOFz69Hzn8sEPwOuCHB-3" target="VPOFz69Hzn8sEPwOuCHB-13" edge="1">
          <mxGeometry relative="1" as="geometry">
            <Array as="points">
              <mxPoint x="-405" y="1450" />
            </Array>
          </mxGeometry>
        </mxCell>
        <mxCell id="VPOFz69Hzn8sEPwOuCHB-19" style="edgeStyle=orthogonalEdgeStyle;rounded=0;orthogonalLoop=1;jettySize=auto;html=1;fillColor=#f8cecc;strokeColor=#b85450;" parent="1" source="VPOFz69Hzn8sEPwOuCHB-3" target="VPOFz69Hzn8sEPwOuCHB-15" edge="1">
          <mxGeometry relative="1" as="geometry">
            <Array as="points">
              <mxPoint x="-510" y="1520" />
              <mxPoint x="-510" y="1522" />
            </Array>
          </mxGeometry>
        </mxCell>
        <mxCell id="VPOFz69Hzn8sEPwOuCHB-3" value="&lt;div style=&quot;font-size: 40px;&quot;&gt;&lt;br&gt;&lt;/div&gt;" style="shape=umlActor;verticalLabelPosition=bottom;verticalAlign=top;html=1;fillColor=#f8cecc;strokeColor=#b85450;" parent="1" vertex="1">
          <mxGeometry x="-1040" y="1324" width="316" height="330" as="geometry" />
        </mxCell>
        <mxCell id="VPOFz69Hzn8sEPwOuCHB-35" style="edgeStyle=orthogonalEdgeStyle;rounded=0;orthogonalLoop=1;jettySize=auto;html=1;fillColor=#f8cecc;strokeColor=#b85450;" parent="1" source="VPOFz69Hzn8sEPwOuCHB-7" target="VPOFz69Hzn8sEPwOuCHB-15" edge="1">
          <mxGeometry relative="1" as="geometry" />
        </mxCell>
        <mxCell id="VPOFz69Hzn8sEPwOuCHB-7" value="&lt;div style=&quot;font-size: 40px;&quot;&gt;&lt;br&gt;&lt;/div&gt;" style="shape=umlActor;verticalLabelPosition=bottom;verticalAlign=top;html=1;fillColor=#f8cecc;strokeColor=#b85450;" parent="1" vertex="1">
          <mxGeometry x="720" y="980" width="316" height="330" as="geometry" />
        </mxCell>
        <mxCell id="VPOFz69Hzn8sEPwOuCHB-55" style="edgeStyle=orthogonalEdgeStyle;rounded=0;orthogonalLoop=1;jettySize=auto;html=1;fillColor=#f8cecc;strokeColor=#b85450;" parent="1" source="VPOFz69Hzn8sEPwOuCHB-8" target="VPOFz69Hzn8sEPwOuCHB-51" edge="1">
          <mxGeometry relative="1" as="geometry" />
        </mxCell>
        <mxCell id="VPOFz69Hzn8sEPwOuCHB-8" value="&lt;div style=&quot;font-size: 40px;&quot;&gt;&lt;br&gt;&lt;/div&gt;" style="shape=umlActor;verticalLabelPosition=bottom;verticalAlign=top;html=1;fillColor=#f8cecc;strokeColor=#b85450;" parent="1" vertex="1">
          <mxGeometry x="720" y="2050" width="316" height="330" as="geometry" />
        </mxCell>
        <mxCell id="VPOFz69Hzn8sEPwOuCHB-13" value="&lt;font style=&quot;font-size: 16px;&quot;&gt;Inicializar sistema&lt;/font&gt;" style="ellipse;whiteSpace=wrap;html=1;" parent="1" vertex="1">
          <mxGeometry x="-440" y="960" width="240" height="140" as="geometry" />
        </mxCell>
        <mxCell id="VPOFz69Hzn8sEPwOuCHB-15" value="Registro de Ausências e Presenças" style="ellipse;whiteSpace=wrap;html=1;" parent="1" vertex="1">
          <mxGeometry x="-300" y="1455" width="220" height="135" as="geometry" />
        </mxCell>
        <mxCell id="VPOFz69Hzn8sEPwOuCHB-22" value="Atualizar Banco Geral de Presença" style="ellipse;whiteSpace=wrap;html=1;" parent="1" vertex="1">
          <mxGeometry x="30" y="1455" width="220" height="135" as="geometry" />
        </mxCell>
        <mxCell id="VPOFz69Hzn8sEPwOuCHB-24" value="include" style="endArrow=open;endSize=12;dashed=1;html=1;rounded=0;entryX=0;entryY=0.5;entryDx=0;entryDy=0;" parent="1" target="VPOFz69Hzn8sEPwOuCHB-22" edge="1">
          <mxGeometry width="160" relative="1" as="geometry">
            <mxPoint x="-80" y="1520" as="sourcePoint" />
            <mxPoint x="40" y="1520" as="targetPoint" />
          </mxGeometry>
        </mxCell>
        <mxCell id="VPOFz69Hzn8sEPwOuCHB-26" value="&lt;font style=&quot;font-size: 16px;&quot;&gt;Fazer login&lt;/font&gt;" style="ellipse;whiteSpace=wrap;html=1;" parent="1" vertex="1">
          <mxGeometry x="-90" y="960" width="240" height="140" as="geometry" />
        </mxCell>
        <mxCell id="VPOFz69Hzn8sEPwOuCHB-29" value="include" style="endArrow=open;endSize=12;dashed=1;html=1;rounded=0;exitX=0.996;exitY=0.531;exitDx=0;exitDy=0;exitPerimeter=0;" parent="1" source="VPOFz69Hzn8sEPwOuCHB-13" target="VPOFz69Hzn8sEPwOuCHB-26" edge="1">
          <mxGeometry width="160" relative="1" as="geometry">
            <mxPoint x="-200" y="1040" as="sourcePoint" />
            <mxPoint x="-100" y="1040" as="targetPoint" />
          </mxGeometry>
        </mxCell>
        <mxCell id="VPOFz69Hzn8sEPwOuCHB-63" style="edgeStyle=orthogonalEdgeStyle;rounded=0;orthogonalLoop=1;jettySize=auto;html=1;fillColor=#f8cecc;strokeColor=#b85450;exitX=0.5;exitY=0;exitDx=0;exitDy=0;exitPerimeter=0;" parent="1" target="VPOFz69Hzn8sEPwOuCHB-57" edge="1" source="vbFmJMItp8fNbqVg5773-1">
          <mxGeometry relative="1" as="geometry">
            <mxPoint x="-872" y="2200" as="sourcePoint" />
            <Array as="points">
              <mxPoint x="-872" y="2240" />
              <mxPoint x="-872" y="2230" />
            </Array>
          </mxGeometry>
        </mxCell>
        <mxCell id="VPOFz69Hzn8sEPwOuCHB-31" value="Análise do histórico de presenças" style="ellipse;whiteSpace=wrap;html=1;" parent="1" vertex="1">
          <mxGeometry x="-420" y="1940" width="160" height="90" as="geometry" />
        </mxCell>
        <mxCell id="VPOFz69Hzn8sEPwOuCHB-34" value="include" style="endArrow=open;endSize=12;dashed=1;html=1;rounded=0;exitX=0.5;exitY=1;exitDx=0;exitDy=0;" parent="1" source="VPOFz69Hzn8sEPwOuCHB-22" target="VPOFz69Hzn8sEPwOuCHB-31" edge="1">
          <mxGeometry width="160" relative="1" as="geometry">
            <mxPoint x="90" y="1700" as="sourcePoint" />
            <mxPoint x="250" y="1700" as="targetPoint" />
          </mxGeometry>
        </mxCell>
        <mxCell id="VPOFz69Hzn8sEPwOuCHB-36" value="Calcular porcentagem de presença" style="ellipse;whiteSpace=wrap;html=1;" parent="1" vertex="1">
          <mxGeometry x="-90" y="1961" width="180" height="89" as="geometry" />
        </mxCell>
        <mxCell id="VPOFz69Hzn8sEPwOuCHB-38" value="include" style="endArrow=open;endSize=12;dashed=1;html=1;rounded=0;exitX=1;exitY=0.5;exitDx=0;exitDy=0;entryX=0;entryY=0.5;entryDx=0;entryDy=0;" parent="1" source="VPOFz69Hzn8sEPwOuCHB-31" target="VPOFz69Hzn8sEPwOuCHB-36" edge="1">
          <mxGeometry width="160" relative="1" as="geometry">
            <mxPoint x="-230" y="1984.33" as="sourcePoint" />
            <mxPoint x="-70" y="1984.33" as="targetPoint" />
          </mxGeometry>
        </mxCell>
        <mxCell id="VPOFz69Hzn8sEPwOuCHB-41" value="Reprovado" style="ellipse;whiteSpace=wrap;html=1;" parent="1" vertex="1">
          <mxGeometry x="210" y="1871" width="140" height="70" as="geometry" />
        </mxCell>
        <mxCell id="VPOFz69Hzn8sEPwOuCHB-42" value="Aviso" style="ellipse;whiteSpace=wrap;html=1;" parent="1" vertex="1">
          <mxGeometry x="200" y="2110" width="140" height="70" as="geometry" />
        </mxCell>
        <mxCell id="VPOFz69Hzn8sEPwOuCHB-45" value="extends" style="html=1;verticalAlign=bottom;endArrow=open;dashed=1;endSize=8;curved=0;rounded=0;entryX=1;entryY=0;entryDx=0;entryDy=0;" parent="1" source="VPOFz69Hzn8sEPwOuCHB-41" target="VPOFz69Hzn8sEPwOuCHB-36" edge="1">
          <mxGeometry relative="1" as="geometry">
            <mxPoint x="170" y="1930" as="sourcePoint" />
            <mxPoint x="90" y="1930" as="targetPoint" />
          </mxGeometry>
        </mxCell>
        <mxCell id="VPOFz69Hzn8sEPwOuCHB-46" value="extends" style="html=1;verticalAlign=bottom;endArrow=open;dashed=1;endSize=8;curved=0;rounded=0;entryX=1;entryY=1;entryDx=0;entryDy=0;exitX=0;exitY=0.5;exitDx=0;exitDy=0;" parent="1" source="VPOFz69Hzn8sEPwOuCHB-42" target="VPOFz69Hzn8sEPwOuCHB-36" edge="1">
          <mxGeometry relative="1" as="geometry">
            <mxPoint x="160" y="2108.89" as="sourcePoint" />
            <mxPoint x="80" y="2108.89" as="targetPoint" />
          </mxGeometry>
        </mxCell>
        <mxCell id="VPOFz69Hzn8sEPwOuCHB-47" value="Presença ok" style="ellipse;whiteSpace=wrap;html=1;" parent="1" vertex="1">
          <mxGeometry x="220" y="1980" width="140" height="70" as="geometry" />
        </mxCell>
        <mxCell id="VPOFz69Hzn8sEPwOuCHB-48" value="extends" style="html=1;verticalAlign=bottom;endArrow=open;dashed=1;endSize=8;curved=0;rounded=0;exitX=0;exitY=0.5;exitDx=0;exitDy=0;entryX=1;entryY=0.5;entryDx=0;entryDy=0;" parent="1" source="VPOFz69Hzn8sEPwOuCHB-47" target="VPOFz69Hzn8sEPwOuCHB-36" edge="1">
          <mxGeometry relative="1" as="geometry">
            <mxPoint x="200" y="2020" as="sourcePoint" />
            <mxPoint x="120" y="2020" as="targetPoint" />
          </mxGeometry>
        </mxCell>
        <mxCell id="VPOFz69Hzn8sEPwOuCHB-49" value="Sem a possibilidade de ser reprovado por falta" style="ellipse;whiteSpace=wrap;html=1;" parent="1" vertex="1">
          <mxGeometry x="445" y="1980" width="140" height="70" as="geometry" />
        </mxCell>
        <mxCell id="VPOFz69Hzn8sEPwOuCHB-50" value="incude" style="endArrow=open;endSize=12;dashed=1;html=1;rounded=0;exitX=1;exitY=0.5;exitDx=0;exitDy=0;entryX=0;entryY=0.5;entryDx=0;entryDy=0;" parent="1" source="VPOFz69Hzn8sEPwOuCHB-47" target="VPOFz69Hzn8sEPwOuCHB-49" edge="1">
          <mxGeometry width="160" relative="1" as="geometry">
            <mxPoint x="380" y="2040" as="sourcePoint" />
            <mxPoint x="480" y="2040" as="targetPoint" />
          </mxGeometry>
        </mxCell>
        <mxCell id="VPOFz69Hzn8sEPwOuCHB-51" value="Envio de email acerca da quantidade de faltas" style="ellipse;whiteSpace=wrap;html=1;" parent="1" vertex="1">
          <mxGeometry x="410" y="2110" width="140" height="70" as="geometry" />
        </mxCell>
        <mxCell id="VPOFz69Hzn8sEPwOuCHB-52" value="Use" style="endArrow=open;endSize=12;dashed=1;html=1;rounded=0;exitX=1;exitY=0.5;exitDx=0;exitDy=0;entryX=0;entryY=0.5;entryDx=0;entryDy=0;" parent="1" source="VPOFz69Hzn8sEPwOuCHB-42" target="VPOFz69Hzn8sEPwOuCHB-51" edge="1">
          <mxGeometry width="160" relative="1" as="geometry">
            <mxPoint x="340" y="2180" as="sourcePoint" />
            <mxPoint x="420" y="2180" as="targetPoint" />
          </mxGeometry>
        </mxCell>
        <mxCell id="VPOFz69Hzn8sEPwOuCHB-56" value="include" style="endArrow=open;endSize=12;dashed=1;html=1;rounded=0;entryX=0.5;entryY=0;entryDx=0;entryDy=0;" parent="1" source="VPOFz69Hzn8sEPwOuCHB-36" target="VPOFz69Hzn8sEPwOuCHB-57" edge="1">
          <mxGeometry width="160" relative="1" as="geometry">
            <mxPoint x="-90" y="2160" as="sourcePoint" />
            <mxPoint x="-50" y="2180" as="targetPoint" />
          </mxGeometry>
        </mxCell>
        <mxCell id="VPOFz69Hzn8sEPwOuCHB-57" value="Relatório de Aprovados e Reprovados por turma" style="ellipse;whiteSpace=wrap;html=1;" parent="1" vertex="1">
          <mxGeometry x="-120" y="2190" width="140" height="70" as="geometry" />
        </mxCell>
        <mxCell id="VPOFz69Hzn8sEPwOuCHB-58" value="Número de aprovados" style="ellipse;whiteSpace=wrap;html=1;" parent="1" vertex="1">
          <mxGeometry x="-230" y="2340" width="140" height="70" as="geometry" />
        </mxCell>
        <mxCell id="VPOFz69Hzn8sEPwOuCHB-59" value="Número de reprovados" style="ellipse;whiteSpace=wrap;html=1;" parent="1" vertex="1">
          <mxGeometry y="2340" width="140" height="70" as="geometry" />
        </mxCell>
        <mxCell id="VPOFz69Hzn8sEPwOuCHB-60" value="extends" style="html=1;verticalAlign=bottom;endArrow=open;dashed=1;endSize=8;curved=0;rounded=0;" parent="1" source="VPOFz69Hzn8sEPwOuCHB-58" target="VPOFz69Hzn8sEPwOuCHB-57" edge="1">
          <mxGeometry relative="1" as="geometry">
            <mxPoint x="-150" y="2290" as="sourcePoint" />
            <mxPoint x="-230" y="2290" as="targetPoint" />
          </mxGeometry>
        </mxCell>
        <mxCell id="VPOFz69Hzn8sEPwOuCHB-61" value="extends" style="html=1;verticalAlign=bottom;endArrow=open;dashed=1;endSize=8;curved=0;rounded=0;exitX=0.5;exitY=0;exitDx=0;exitDy=0;entryX=0.761;entryY=0.915;entryDx=0;entryDy=0;entryPerimeter=0;" parent="1" source="VPOFz69Hzn8sEPwOuCHB-59" target="VPOFz69Hzn8sEPwOuCHB-57" edge="1">
          <mxGeometry relative="1" as="geometry">
            <mxPoint x="100" y="2280" as="sourcePoint" />
            <mxPoint x="20" y="2280" as="targetPoint" />
          </mxGeometry>
        </mxCell>
        <mxCell id="vbFmJMItp8fNbqVg5773-10" style="edgeStyle=orthogonalEdgeStyle;rounded=0;orthogonalLoop=1;jettySize=auto;html=1;entryX=0;entryY=0.5;entryDx=0;entryDy=0;fillColor=#f8cecc;strokeColor=#b85450;" edge="1" parent="1">
          <mxGeometry relative="1" as="geometry">
            <mxPoint x="-767" y="2400.047619047619" as="sourcePoint" />
            <mxPoint x="-453.00000000000205" y="1980" as="targetPoint" />
            <Array as="points">
              <mxPoint x="-690" y="2400" />
              <mxPoint x="-690" y="1980" />
            </Array>
          </mxGeometry>
        </mxCell>
        <mxCell id="vbFmJMItp8fNbqVg5773-1" value="&lt;div style=&quot;font-size: 40px;&quot;&gt;&lt;br&gt;&lt;/div&gt;" style="shape=umlActor;verticalLabelPosition=bottom;verticalAlign=top;html=1;fillColor=#f8cecc;strokeColor=#b85450;" vertex="1" parent="1">
          <mxGeometry x="-1050" y="2240" width="316" height="330" as="geometry" />
        </mxCell>
        <mxCell id="vbFmJMItp8fNbqVg5773-3" value="&lt;span style=&quot;color: rgb(224, 11, 11); font-family: Helvetica; font-size: 40px; font-style: normal; font-variant-ligatures: normal; font-variant-caps: normal; font-weight: 400; letter-spacing: normal; orphans: 2; text-align: center; text-indent: 0px; text-transform: none; widows: 2; word-spacing: 0px; -webkit-text-stroke-width: 0px; white-space: nowrap; background-color: rgb(251, 251, 251); text-decoration-thickness: initial; text-decoration-style: initial; text-decoration-color: initial; display: inline !important; float: none;&quot;&gt;Professores&lt;/span&gt;" style="text;whiteSpace=wrap;html=1;" vertex="1" parent="1">
          <mxGeometry x="-977" y="1670" width="210" height="70" as="geometry" />
        </mxCell>
        <mxCell id="vbFmJMItp8fNbqVg5773-6" value="&lt;span style=&quot;color: rgb(224, 11, 11); font-family: Helvetica; font-size: 40px; font-style: normal; font-variant-ligatures: normal; font-variant-caps: normal; font-weight: 400; letter-spacing: normal; orphans: 2; text-align: center; text-indent: 0px; text-transform: none; widows: 2; word-spacing: 0px; -webkit-text-stroke-width: 0px; white-space: nowrap; background-color: rgb(251, 251, 251); text-decoration-thickness: initial; text-decoration-style: initial; text-decoration-color: initial; display: inline !important; float: none;&quot;&gt;Aluno&lt;/span&gt;" style="text;whiteSpace=wrap;html=1;" vertex="1" parent="1">
          <mxGeometry x="826" y="1330" width="210" height="70" as="geometry" />
        </mxCell>
        <mxCell id="vbFmJMItp8fNbqVg5773-8" value="&lt;span style=&quot;color: rgb(224, 11, 11); font-family: Helvetica; font-size: 40px; font-style: normal; font-variant-ligatures: normal; font-variant-caps: normal; font-weight: 400; letter-spacing: normal; orphans: 2; text-align: center; text-indent: 0px; text-transform: none; widows: 2; word-spacing: 0px; -webkit-text-stroke-width: 0px; white-space: nowrap; background-color: rgb(251, 251, 251); text-decoration-thickness: initial; text-decoration-style: initial; text-decoration-color: initial; display: inline !important; float: none;&quot;&gt;Responsáveis&lt;/span&gt;" style="text;whiteSpace=wrap;html=1;" vertex="1" parent="1">
          <mxGeometry x="773" y="2420" width="210" height="70" as="geometry" />
        </mxCell>
        <mxCell id="vbFmJMItp8fNbqVg5773-12" value="&lt;font style=&quot;font-size: 42px;&quot;&gt;Sistema de Registro de Presença&lt;/font&gt;" style="rounded=0;whiteSpace=wrap;html=1;" vertex="1" parent="1">
          <mxGeometry x="-150" y="760" width="330" height="150" as="geometry" />
        </mxCell>
        <mxCell id="vbFmJMItp8fNbqVg5773-13" value="&lt;span style=&quot;color: rgb(224, 11, 11); font-family: Helvetica; font-size: 40px; font-style: normal; font-variant-ligatures: normal; font-variant-caps: normal; font-weight: 400; letter-spacing: normal; orphans: 2; text-align: center; text-indent: 0px; text-transform: none; widows: 2; word-spacing: 0px; -webkit-text-stroke-width: 0px; white-space: nowrap; background-color: rgb(251, 251, 251); text-decoration-thickness: initial; text-decoration-style: initial; text-decoration-color: initial; display: inline !important; float: none;&quot;&gt;Instituição&lt;/span&gt;" style="text;whiteSpace=wrap;html=1;" vertex="1" parent="1">
          <mxGeometry x="-997" y="2600" width="210" height="70" as="geometry" />
        </mxCell>
      </root>
    </mxGraphModel>
  </diagram>
</mxfile>
